# AST/ASF file generated using VICON BodyLanguage
# -----------------------------------------------
:version 1.10
:name VICON
:units
  mass 1.0
  length 0.45
  angle deg
:documentation
   .ast/.asf automatically generated from VICON data using
   VICON BodyBuilder and BodyLanguage model FoxedUp or BRILLIANT.MOD
:root
   order TX TY TZ RX RY RZ
   axis XYZ
   position 0 0 0  
   orientation 0 0 0 
:bonedata
  begin
     id 1 
     name lhipjoint
     direction 0.558404 -0.748506 0.357664 
     length 2.4234 
     axis 0 0 0  XYZ
  end
  begin
     id 2 
     name lfemur
     direction 0.34202 -0.939693 0  
     length 7.14567  
     axis 0 0 20  XYZ
    dof rx ry rz
    limits (-160.0 20.0)
           (-70.0 70.0)
           (-60.0 70.0)
  end
  begin
     id 3 
     name ltibia
     direction 0.34202 -0.939693 0   
     length 8.13956   
     axis 0 0 20   XYZ
    dof rx
    limits (-10.0 170.0)
  end
  begin
     id 4 
     name lfoot
     direction 0.0791314 -0.217412 0.972867   
     length 2.00134   
     axis -90 7.62852e-016 20   XYZ
    dof rx rz
    limits (-45.0 90.0)
           (-70.0 20.0)
  end
  begin
     id 5 
     name ltoes
     direction 1.53547e-011 -4.21922e-011 1   
     length 1.00735   
     axis -90 7.62852e-016 20   XYZ
    dof rx
    limits (-90.0 20.0)
  end
  begin
     id 6 
     name rhipjoint
     direction -0.496392 -0.78327 0.374276   
     length 2.31584  
     axis 0 0 0  XYZ 
  end
  begin
     id 7 
     name rfemur
     direction -0.34202 -0.939693 0   
     length 7.47417   
     axis 0 0 -20   XYZ
    dof rx ry rz
    limits (-160.0 20.0)
           (-70.0 70.0)
           (-70.0 60.0)
  end
  begin
     id 8 
     name rtibia
     direction -0.34202 -0.939693 0   
     length 7.69071   
     axis 0 0 -20   XYZ
    dof rx
    limits (-10.0 170.0)
 end
 begin
     id 9 
     name rfoot
     direction -0.103069 -0.28318 0.953512   
     length 2.16135  
     axis -90 -7.62852e-016 -20   XYZ
    dof rx rz
    limits (-45.0 90.0)
           (-20.0 70.0)
  end
  begin
     id 10 
     name rtoes
     direction -1.53581e-011 -4.21904e-011 1   
     length 1.07867   
     axis -90 -7.62852e-016 -20   XYZ
    dof rx
    limits (-90.0 20.0)
  end
  begin
     id 11 
     name lowerback
     direction -0.0258961 0.994776 -0.0987407   
     length 2.19412   
     axis 0 0 0   XYZ
    dof rx ry rz
    limits (-20.0 45.0)
           (-30.0 30.0)
           (-30.0 30.0)
  end
  begin
     id 12 
     name upperback
     direction 0.0402454 0.999185 0.00320666   
     length 2.18445   
     axis 0 0 0   XYZ
    dof rx ry rz
    limits (-20.0 45.0)
           (-30.0 30.0)
           (-30.0 30.0)
  end
  begin
     id 13 
     name thorax
     direction 0.0519376 0.997415 0.0496558   
     length 2.21487   
     axis 0 0 0   XYZ
    dof rx ry rz
    limits (-20.0 45.0)
           (-30.0 30.0)
           (-30.0 30.0)
  end
  begin
     id 14 
     name lowerneck
     direction -0.0921276 0.983211 0.157506   
     length 1.61201   
     axis 0 0 0   XYZ
    dof rx ry rz
    limits (-20.0 45.0)
           (-30.0 30.0)
           (-30.0 30.0)
  end
  begin
     id 15 
     name upperneck
     direction 0.0820814 0.98162 -0.172292   
     length 1.65275   
     axis 0 0 0   XYZ
    dof rx ry rz
    limits (-20.0 45.0)
           (-30.0 30.0)
           (-30.0 30.0)
  end
  begin
     id 16
     name head
     direction 0.0336554 0.996413 -0.0776455  
     length 1.66415  
     axis 0 0 0   XYZ
    dof rx ry rz
    limits (-20.0 45.0)
           (-30.0 30.0)
           (-30.0 30.0)
  end
  begin
     id 17 
     name lclavicle
     direction 0.94696 0.284418 -0.149576  
     length 3.41447  
     axis 0 0 0   XYZ
    dof ry rz
    limits (-20.0 10.0)
           (0.0 20.0)
  end
  begin
     id 18 
     name lhumerus
     direction 1 -0.000130264 -9.81312e-005   
     length 5.19964   
     axis 180 -30 -90   XYZ
    dof rx ry rz
    limits (-60.0 90.0)
           (-90.0 90.0)
           (-90.0 90.0)
  end
  begin
     id 19
     name lradius
     direction 1 -4.48961e-011 1.43854e-026   
     length 3.32189   
     axis 180 -30 -90   XYZ
    dof rx
    limits (-10.0 170.0)
  end
  begin
     id 20
     name lwrist
     direction 1 -4.48958e-011 3.1502e-026   
     length 1.66095   
     axis -1.97692e-014 90 90   XYZ
    dof ry
    limits (-180.0 0.0)
 end
  begin
     id 21 
     name lhand
     direction 1 -4.48927e-011 6.3004e-026   
     length 0.645616   
     axis -4.02019e-014 90 90   XYZ
    dof rx rz
    limits (-90.0 90.0)
           (-45.0 45.0)
  end
  begin
     id 22 
     name lfingers
     direction 1 -4.4904e-011 1.26008e-025   
     length 0.520512   
     axis -8.04039e-014 90 90   XYZ
    dof rx
    limits (0.0 90.0)
  end
  begin
     id 23
     name lthumb
     direction 0.707107 -6.34947e-011 0.707107   
     length 0.747354   
     axis -90 45 2.85299e-015   XYZ
    dof rx rz
    limits (-45.0 45.0)
           (-45.0 45.0)
  end
  begin
     id 24 
     name rclavicle
     direction -0.909391 0.383475 -0.161107   
     length 3.25176  
     axis 0 0 0   XYZ 
    dof ry rz
    limits (-10.0 20.0)
           (-20.0 0.0)
  end
  begin
     id 25 
     name rhumerus
     direction -1 -4.48965e-011 -1.81384e-027  
     length 5.6595   
     axis 180 30 90   XYZ
    dof rx ry rz
    limits (-90.0 60.0)
           (-90.0 90.0)
           (-90.0 90.0)
  end
  begin
     id 26 
     name rradius
     direction -1 -4.48996e-011 -8.09397e-027   
     length 3.37604   
     axis 180 30 90   XYZ
    dof rx
    limits (-10.0 170.0)
  end
  begin
     id 27 
     name rwrist
     direction -1 -4.48927e-011 -1.56669e-026   
     length 1.68802   
     axis 1.21142e-014 -90 -90   XYZ
    dof ry
    limits (-180.0 0.0)
  end
  begin
     id 28
     name rhand
     direction -1 -4.48912e-011 -3.13339e-026   
     length 0.824702   
     axis 1.99937e-014 -90 -90   XYZ
    dof rx rz
    limits (-90.0 90.0)
           (-45.0 45.0)
  end
  begin
     id 29
     name rfingers
     direction -1 -4.49011e-011 -6.26677e-026   
     length 0.664896   
     axis 3.99874e-014 -90 -90   XYZ
    dof rx
    limits (0.0 90.0)
  end
  begin
     id 30
     name rthumb
     direction -0.707107 -6.34931e-011 0.707107   
     length 0.954662   
     axis -90 -45 -2.85299e-015   XYZ
    dof rx rz
    limits (-45.0 45.0)
           (-45.0 45.0)
  end
:hierarchy
  begin
    root lhipjoint rhipjoint lowerback
    lhipjoint lfemur
    lfemur ltibia
    ltibia lfoot
    lfoot ltoes
    rhipjoint rfemur
    rfemur rtibia
    rtibia rfoot
    rfoot rtoes
    lowerback upperback
    upperback thorax
    thorax lowerneck lclavicle rclavicle
    lowerneck upperneck
    upperneck head
    lclavicle lhumerus
    lhumerus lradius
    lradius lwrist
    lwrist lhand lthumb
    lhand lfingers
    rclavicle rhumerus
    rhumerus rradius
    rradius rwrist
    rwrist rhand rthumb
    rhand rfingers
  end

#!OML:ASF F:\VICON\USERDATA\INSTALL\rory3\rory3.ASF
:FULLY-SPECIFIED
:DEGREES
185
root 10.941 17.7366 -18.0568 10.1834 -47.3004 -7.11201
lowerback 5.76172 -0.550718 -2.61814
upperback 0.416782 -0.806459 4.50311
thorax -2.70322 -0.362353 6.23382
lowerneck -12.0624 0.526214 -10.4152
upperneck 28.6223 0.0186522 9.9112
head 11.1829 -0.0578717 5.46565
rclavicle 6.55989e-015 1.31198e-014
rhumerus -36.5214 -18.3752 -70.1813
rradius 34.2616
rwrist -14.3839
rhand -10.8702 17.4793
rfingers 7.12502
rthumb 15.1455 -11.9465
lclavicle 6.55989e-015 1.31198e-014
lhumerus -28.2151 24.7115 76.6873
lradius 26.8655
lwrist -8.98334
lhand -0.702084 34.3182
lfingers 7.12502
lthumb 24.9177 62.7139
rfemur -24.0237 6.70743 19.5419
rtibia 44.0139
rfoot -17.0823 -6.22998
rtoes 9.11506
lfemur -16.0857 5.01644 -20.9705
ltibia 37.9686
lfoot -25.0937 14.8943
ltoes 11.4153
186
root 10.9342 17.7319 -17.9806 9.55409 -48.6293 -7.18608
lowerback 5.82615 -0.0886567 -2.27588
upperback 0.918459 -0.187361 4.22736
thorax -2.29975 -0.0767685 5.69071
lowerneck -12.1195 0.394803 -10.1327
upperneck 28.4186 -0.180882 9.78331
head 11.1441 -0.126173 5.33426
rclavicle 9.33791e-014 1.55052e-014
rhumerus -36.4607 -18.4595 -70.3645
rradius 34.6267
rwrist -14.7666
rhand -10.9254 17.4134
rfingers 7.12502
rthumb 15.0924 -12.0164
lclavicle 9.33791e-014 1.55052e-014
lhumerus -27.6528 24.7322 76.6591
lradius 26.5519
lwrist -9.16299
lhand -0.931409 34.1081
lfingers 7.12502
lthumb 24.698 62.534
rfemur -23.4677 6.90821 19.3091
rtibia 44.1763
rfoot -16.623 -5.83901
rtoes 3.77673
lfemur -14.8485 3.94528 -21.5229
ltibia 37.7654
lfoot -25.9529 16.8196
ltoes 11.8931
187
root 10.9327 17.734 -17.9535 9.28098 -49.1361 -6.99307
lowerback 5.82355 0.252246 -2.27899
upperback 1.09333 0.258486 3.87955
thorax -2.16711 0.140714 5.28953
lowerneck -12.1833 0.19911 -9.39937
upperneck 28.3497 -0.597038 9.65727
head 11.1824 -0.24899 5.10454
rclavicle -4.14963e-014 -2.74323e-014
rhumerus -36.8161 -18.6296 -70.5635
rradius 35.2489
rwrist -15.4371
rhand -10.8303 17.3276
rfingers 7.12502
rthumb 15.184 -12.0953
lclavicle -4.14963e-014 -2.74323e-014
lhumerus -26.9954 24.1481 76.6047
lradius 26.322
lwrist -9.1926
lhand -0.789114 34.2139
lfingers 7.12502
lthumb 24.8343 62.6211
rfemur -23.4784 7.04762 18.9874
rtibia 44.374
rfoot -16.538 -5.36267
rtoes 4.12511
lfemur -14.4885 3.65161 -21.9062
ltibia 37.5836
lfoot -26.1937 17.4723
ltoes 10.9023
188
root 10.9354 17.7353 -17.951 9.37084 -49.3043 -6.96951
lowerback 5.79215 0.235057 -2.39022
upperback 0.99552 0.231232 3.82701
thorax -2.24788 0.131904 5.30034
lowerneck -11.4791 0.281225 -9.44671
upperneck 28.0633 -0.551377 9.75881
head 10.9237 -0.232913 5.1292
rclavicle 9.01488e-014 6.75868e-015
rhumerus -37.0862 -18.427 -70.5526
rradius 35.5967
rwrist -15.56
rhand -10.8356 17.2685
rfingers 7.12502
rthumb 15.1788 -12.1548
lclavicle 9.01488e-014 6.75868e-015
lhumerus -27.0982 24.1599 76.3453
lradius 26.2789
lwrist -8.82928
lhand -0.342973 34.5311
lfingers 7.12502
lthumb 25.2618 62.8786
rfemur -23.7537 7.18004 18.8653
rtibia 44.5912
rfoot -16.5214 -5.01204
rtoes 5.81863
lfemur -14.547 3.61209 -21.9866
ltibia 37.4525
lfoot -26.1505 17.5952
ltoes 12.4521
189
root 10.9421 17.7341 -17.9464 9.69536 -49.4482 -7.21042
lowerback 5.80205 0.225044 -2.24934
upperback 1.01907 0.225615 3.85018
thorax -2.22806 0.12685 5.24443
lowerneck -11.3983 0.312207 -9.58596
upperneck 27.8726 -0.490082 9.83986
head 10.8277 -0.207835 5.18083
rclavicle 3.06128e-014 1.63003e-014
rhumerus -36.8496 -18.8504 -70.4858
rradius 35.6224
rwrist -15.1588
rhand -10.9362 17.3318
rfingers 7.12502
rthumb 15.082 -12.0988
lclavicle 3.06128e-014 1.63003e-014
lhumerus -26.8259 24.253 76.3125
lradius 26.0825
lwrist -8.46778
lhand -0.453667 34.3508
lfingers 7.12502
lthumb 25.1558 62.7133
rfemur -24.1099 7.14584 18.9803
rtibia 44.8443
rfoot -16.3083 -4.91257
rtoes 4.84958
lfemur -14.7405 3.52502 -21.8833
ltibia 37.4986
lfoot -26.2152 17.6999
ltoes 14.4364
190
root 10.9532 17.7352 -17.9576 9.93382 -49.3222 -7.20443
lowerback 5.91585 0.2523 -2.31411
upperback 1.02797 0.256742 3.81051
thorax -2.28594 0.144004 5.23785
lowerneck -11.8006 0.206331 -9.45446
upperneck 27.976 -0.647401 9.869
head 10.9671 -0.254917 5.16301
rclavicle -2.77305e-014 -1.51076e-014
rhumerus -36.6429 -19.5437 -70.4174
rradius 35.7364
rwrist -14.9443
rhand -10.7627 17.4549
rfingers 7.12502
rthumb 15.2491 -11.963
lclavicle -2.77305e-014 -1.51076e-014
lhumerus -26.3672 24.0463 76.4303
lradius 25.9591
lwrist -8.30057
lhand -0.509325 34.2231
lfingers 7.12502
lthumb 25.1024 62.5931
rfemur -24.5691 6.88786 19.0085
rtibia 45.103
rfoot -16.074 -4.89855
rtoes 3.665
lfemur -15.1314 3.842 -21.8064
ltibia 37.6054
lfoot -26.1094 17.3013
ltoes 11.7232
191
root 10.9707 17.7436 -18.0066 10.5293 -48.5571 -7.127
lowerback 6.00153 -0.0494997 -2.73475
upperback 0.764901 -0.164192 3.91636
thorax -2.559 -0.0506808 5.62719
lowerneck -12.0995 0.22272 -9.18596
upperneck 28.1821 -0.631488 9.70869
head 11.1045 -0.236194 5.07189
rclavicle 7.90169e-015 8.34896e-015
rhumerus -36.4492 -19.68 -70.4821
rradius 35.9029
rwrist -14.8861
rhand -10.7228 17.344
rfingers 7.12502
rthumb 15.2875 -12.071
lclavicle 7.90169e-015 8.34896e-015
lhumerus -26.3005 24.493 76.1832
lradius 26.0382
lwrist -8.56619
lhand 0.309113 34.5243
lfingers 7.12502
lthumb 25.8864 62.7822
rfemur -25.5053 6.35194 19.1455
rtibia 45.4186
rfoot -15.8649 -5.09078
rtoes 3.52293
lfemur -16.1641 4.85098 -21.4915
ltibia 37.7243
lfoot -25.4451 15.9166
ltoes 10.1695
192
root 10.974 17.7456 -17.9962 10.7422 -48.7263 -7.31972
lowerback 6.00729 -0.141361 -2.70661
upperback 0.818245 -0.286948 3.90502
thorax -2.49267 -0.115287 5.60838
lowerneck -12.3093 0.378223 -8.84915
upperneck 28.3654 -0.433742 9.52258
head 11.1943 -0.132504 4.97778
rclavicle 1.97791e-014 1.23246e-014
rhumerus -36.258 -19.3053 -70.7666
rradius 36.1793
rwrist -15.0901
rhand -10.9535 17.1094
rfingers 7.12502
rthumb 15.0653 -12.3224
lclavicle 1.97791e-014 1.23246e-014
lhumerus -26.2968 25.1668 75.7608
lradius 26.0681
lwrist -8.84626
lhand 0.722417 34.4189
lfingers 7.12502
lthumb 26.2821 62.6184
rfemur -25.7541 6.3954 19.1508
rtibia 45.7747
rfoot -15.8948 -4.55827
rtoes 5.6045
lfemur -16.2268 4.86035 -21.4473
ltibia 37.7695
lfoot -25.4774 16.1727
ltoes 9.53585
193
root 10.9785 17.7492 -17.9956 10.7191 -48.8858 -7.04342
lowerback 6.02798 -0.182327 -3.04656
upperback 0.741778 -0.362643 3.84137
thorax -2.57283 -0.145752 5.7435
lowerneck -12.1898 0.529235 -8.87831
upperneck 28.4412 -0.275711 9.6796
head 11.1783 -0.0510089 5.06239
rclavicle 8.48811e-014 -2.46493e-014
rhumerus -36.261 -19.0041 -70.9557
rradius 36.4379
rwrist -15.368
rhand -11.23 17.1367
rfingers 7.12502
rthumb 14.799 -12.3149
lclavicle 8.48811e-014 -2.46493e-014
lhumerus -26.3793 25.3003 75.6076
lradius 25.8021
lwrist -9.68206
lhand -0.248084 33.5055
lfingers 7.12502
lthumb 25.3527 61.8402
rfemur -26.1467 6.45291 18.8
rtibia 46.168
rfoot -16.0014 -3.86764
rtoes 10.6734
lfemur -16.436 5.04482 -21.6946
ltibia 37.7759
lfoot -25.3885 16.2019
ltoes 9.20042
194
root 10.9844 17.7501 -17.9977 10.692 -49.0081 -6.68344
lowerback 6.06243 -0.267828 -3.52443
upperback 0.637285 -0.50631 3.82559
thorax -2.67897 -0.206801 6.01503
lowerneck -12.0004 0.663243 -9.11222
upperneck 28.3403 -0.103164 9.90398
head 11.0777 0.0257231 5.20001
rclavicle 7.83709e-014 -1.59028e-014
rhumerus -36.1621 -19.1904 -70.9285
rradius 36.4512
rwrist -15.1175
rhand -11.2345 17.4025
rfingers 7.12502
rthumb 14.7945 -12.0494
lclavicle 7.83709e-014 -1.59028e-014
lhumerus -26.4614 25.3663 75.5836
lradius 25.2883
lwrist -11.2577
lhand -1.8198 32.3431
lfingers 7.12502
lthumb 23.8462 60.883
rfemur -26.6095 6.44124 18.4123
rtibia 46.5331
rfoot -15.9405 -3.35733
rtoes 13.896
lfemur -16.7022 5.23957 -21.9778
ltibia 37.7302
lfoot -25.3496 16.0565
ltoes 9.68542
195
root 10.9868 17.7483 -17.9853 10.8046 -49.3304 -6.82099
lowerback 6.15163 -0.289722 -3.62279
upperback 0.664352 -0.5433 3.90082
thorax -2.69449 -0.224562 6.1558
lowerneck -11.9338 0.779362 -9.28173
upperneck 28.2983 0.103875 9.89477
head 11.0228 0.0999345 5.24686
rclavicle -2.98674e-014 4.19436e-014
rhumerus -36.0836 -19.1336 -70.7877
rradius 36.6163
rwrist -14.8596
rhand -10.6875 17.5882
rfingers 7.12502
rthumb 15.3215 -11.8242
lclavicle -2.98674e-014 4.19436e-014
lhumerus -26.4976 25.538 75.5719
lradius 24.9431
lwrist -12.0195
lhand -2.93262 31.5439
lfingers 7.12502
lthumb 22.7786 60.2191
rfemur -26.8182 6.46453 18.3865
rtibia 46.8621
rfoot -15.7192 -2.97304
rtoes 13.4826
lfemur -16.6262 5.24157 -21.994
ltibia 37.6832
lfoot -25.5416 16.1896
ltoes 10.7866
196
root 10.9868 17.7442 -17.9603 10.9285 -49.8428 -7.10925
lowerback 6.19072 -0.178178 -3.47917
upperback 0.74978 -0.387193 3.92611
thorax -2.64933 -0.151736 6.08669
lowerneck -11.9845 0.795481 -9.3033
upperneck 28.4637 0.163856 9.75529
head 11.0904 0.105224 5.21427
rclavicle -4.25896e-014 -1.86858e-014
rhumerus -36.1967 -18.5626 -70.7729
rradius 37.0611
rwrist -15.0257
rhand -10.4588 17.6353
rfingers 7.12502
rthumb 15.5418 -11.7601
lclavicle -4.25896e-014 -1.86858e-014
lhumerus -26.5199 25.5767 75.5959
lradius 24.8173
lwrist -12.4469
lhand -3.534 31.0744
lfingers 7.12502
lthumb 22.2014 59.8194
rfemur -26.9229 6.5321 18.4417
rtibia 47.1653
rfoot -15.5192 -2.53115
rtoes 13.2686
lfemur -16.3695 5.22445 -21.9898
ltibia 37.6211
lfoot -25.8741 16.4787
ltoes 12.1567
197
root 10.9867 17.7401 -17.9408 10.9428 -50.2336 -7.11208
lowerback 6.15251 -0.0984105 -3.46057
upperback 0.809382 -0.28144 3.84265
thorax -2.5804 -0.102426 5.97743
lowerneck -12.0161 0.807474 -9.27536
upperneck 28.5369 0.164788 9.7735
head 11.1243 0.108946 5.22062
rclavicle 1.51573e-014 -2.32578e-014
rhumerus -36.2642 -18.1793 -70.9173
rradius 37.4607
rwrist -15.4328
rhand -10.7626 17.616
rfingers 7.12502
rthumb 15.2491 -11.8019
lclavicle 1.51573e-014 -2.32578e-014
lhumerus -26.4624 25.7074 75.517
lradius 24.8644
lwrist -12.911
lhand -3.5506 31.2079
lfingers 7.12502
lthumb 22.1855 59.9547
rfemur -27.1505 6.39788 18.3424
rtibia 47.4691
rfoot -15.3217 -2.10851
rtoes 13.2728
lfemur -16.2582 5.2941 -22.1448
ltibia 37.5513
lfoot -26.0636 16.6892
ltoes 12.7604
